<svg width="190" height="252" viewBox="0 0 190 252" fill="none" xmlns="http://www.w3.org/2000/svg">
<path fill-rule="evenodd" clip-rule="evenodd" d="M74.1881 175.018L73.71 221.115L54.8396 220.919L55.12 193.89H20.5041L20.2489 232.67H139.076V175.018H157.947V251.542L0.749634 251.361L1.25302 174.837L74.1881 175.018ZM59.7911 201.691V209.523H57.717V215.244H70.2463V209.523H65.5123V207.413H69.468V201.691H59.7911Z" fill="white"/>
<path d="M189.25 251.542H170.379V217.101H189.25V251.542Z" fill="white"/>
<path d="M189.25 211.251H170.379V196.06H189.25V211.251Z" fill="white"/>
<path d="M189.25 190.21H170.379V185.379L189.25 175.018V190.21Z" fill="white"/>
<path d="M101.675 164.323C101.675 168.704 99.2829 172.736 95.4381 174.837L86.5439 179.698C85.0347 180.522 83.1933 179.43 83.1934 177.71L83.2057 30.9356H101.687L101.675 164.323Z" fill="white"/>
<path d="M188.967 166.007L170.473 176.056V171.008L188.967 160.959V166.007Z" fill="#349C9C"/>
<path fill-rule="evenodd" clip-rule="evenodd" d="M45.262 150.011H20.1631V167.092H1.29172V1.40166H45.262V150.011ZM20.1631 131.139H26.3906V20.273H20.1631V131.139Z" fill="white"/>
<path d="M73.6633 166.715H54.792V0.458374H73.6633V166.715Z" fill="white"/>
<path d="M129.523 166.715H110.651V61.4128H129.523V166.715Z" fill="white"/>
<path d="M157.924 166.621H139.053V0.458374H157.924V166.621Z" fill="white"/>
<path d="M189.008 155.477L170.527 166.621L170.54 0.458466L189.021 0.458374L189.008 155.477Z" fill="white"/>
<path d="M129.523 51.6941H110.651V30.9356H129.523V51.6941Z" fill="white"/>
<path d="M101.876 21.2169H83.0047V0.458374H101.876V21.2169Z" fill="#349C9C"/>
<path d="M129.523 21.2169H110.651V0.458374H129.523V21.2169Z" fill="white"/>
</svg>
